<?xml version="1.0" encoding="iso-8859-1"?>
<!-- Generator: Adobe Illustrator 18.0.0, SVG Export Plug-In . SVG Version: 6.00 Build 0)  -->
<!DOCTYPE svg PUBLIC "-//W3C//DTD SVG 1.1//EN" "http://www.w3.org/Graphics/SVG/1.1/DTD/svg11.dtd">
<svg version="1.1" id="Capa_1" xmlns="http://www.w3.org/2000/svg" xmlns:xlink="http://www.w3.org/1999/xlink" x="0px" y="0px"
	 viewBox="0 0 297 297" style="enable-background:new 0 0 297 297;" xml:space="preserve">
<g>
	<g>
		<path style="fill:#345065;" d="M230.176,0.005c-15.587,0.001-32.462,3.648-48.803,10.547
			c-16.252,6.862-30.785,16.431-42.027,27.673c-17.637,17.637-28.117,40.381-29.509,64.041c-0.137,2.324-0.182,4.63-0.142,6.914
			L64.965,221.14c-1.002,2.509,0.22,5.356,2.728,6.358c0.488,0.194,0.988,0.285,1.486,0.319c0.034,0.496,0.121,0.995,0.315,1.482
			c0.765,1.914,2.603,3.077,4.545,3.077c0.604,0,1.218-0.113,1.813-0.35l112.015-44.752c0.534,0.01,1.064,0.037,1.6,0.037
			c25.191,0,50.45-10.812,69.302-29.664c17.684-17.684,31.2-43.781,36.156-69.809c2.591-13.61,2.756-26.365,0.488-37.911
			c-2.544-12.957-8.038-23.73-16.328-32.021C267.374,6.196,250.461,0.005,230.177,0.005 M112.348,128.912
			c3.489,13.473,10.343,25.627,20.225,35.509c9.817,9.817,22.05,16.681,35.588,20.191l-92.892,37.112L112.348,128.912z
			 M253.235,152.114c-18.125,18.125-41.44,27.372-63.768,27.372c-19.138,0-37.55-6.789-51.36-20.599
			c-29.921-29.921-26.889-81.466,6.772-115.127c21.423-21.423,55.579-35.926,85.293-35.927c16.976-0.001,32.499,4.731,43.379,15.61
			C303.473,53.364,286.897,118.453,253.235,152.114z"/>
	</g>
	<g>
		<g>
			<path style="fill:#BDC3C7;" d="M151.652,150.268l8.619,8.619l-9.801,9.801c2.062,1.28,4.181,2.448,6.352,3.499l8.375-8.375
				l8.619,8.619l-4.416,4.416c2.671,0.72,5.385,1.293,8.135,1.715l1.206-1.206l1.58,1.58c3.425,0.398,6.892,0.586,10.383,0.532
				l-7.038-7.038l8.619-8.619l8.619,8.619l-6.923,6.923c3.744-0.207,7.502-0.679,11.249-1.398l0.6-0.6l0.409,0.409
				c2.631-0.538,5.254-1.202,7.86-1.991l-3.344-3.344l8.619-8.619l7.156,7.156c2.188-1.033,4.353-2.147,6.484-3.366l-8.714-8.714
				l8.619-8.619l10.463,10.463c1.839-1.401,3.632-2.9,5.394-4.456l-10.932-10.932l8.619-8.619l10.949,10.949
				c1.536-1.728,3.029-3.521,4.478-5.372l-10.502-10.502l8.619-8.619l9.002,9.002c1.275-2.018,2.499-4.08,3.67-6.18l-7.747-7.747
				l8.619-8.619l4.852,4.852c1.016-2.308,1.968-4.643,2.853-6.997l-2.78-2.78l5.625-5.625c1.307-4.333,2.381-8.698,3.196-13.047
				l-0.202,0.202l-8.619-8.619l8.619-8.619l1.971,1.971c0.201-4.568,0.079-9.052-0.399-13.392l-1.571,1.571l-8.619-8.619
				l7.142-7.142c-0.808-2.414-1.761-4.747-2.863-6.987l-9.204,9.204l-8.619-8.619l10.984-10.984c-0.755-0.878-1.54-1.734-2.365-2.56
				c-0.826-0.826-1.682-1.61-2.56-2.365l-10.984,10.984l-8.619-8.619l9.204-9.204c-2.24-1.102-4.573-2.055-6.987-2.863l-7.142,7.142
				l-8.619-8.619l1.571-1.571c-4.34-0.478-8.825-0.6-13.392-0.399l1.971,1.971l-8.619,8.619l-8.619-8.619l0.202-0.202
				c-4.349,0.815-8.713,1.889-13.047,3.196l-5.625,5.625l-2.78-2.78c-2.355,0.885-4.689,1.837-6.997,2.853l4.852,4.852l-8.619,8.619
				l-7.747-7.747c-2.1,1.172-4.162,2.396-6.18,3.67l9.002,9.002l-8.619,8.619l-10.502-10.502c-1.852,1.449-3.644,2.943-5.372,4.478
				l10.949,10.949l-8.619,8.619L140.72,48.219c-1.556,1.762-3.055,3.555-4.456,5.394l10.463,10.463l-8.619,8.619l-8.714-8.714
				c-1.22,2.131-2.333,4.296-3.366,6.484l7.156,7.156l-8.619,8.619l-3.344-3.344c-0.789,2.606-1.453,5.229-1.991,7.86l0.409,0.409
				l-0.6,0.6c-0.719,3.747-1.191,7.505-1.398,11.249l6.923-6.923l8.619,8.619l-8.619,8.619l-7.038-7.038
				c-0.053,3.491,0.134,6.957,0.532,10.383l1.58,1.58l-1.206,1.206c0.422,2.75,0.996,5.464,1.715,8.135l4.416-4.416l8.619,8.619
				l-8.375,8.375c1.051,2.171,2.218,4.29,3.499,6.352l9.801-9.801l8.619,8.619l-11.012,11.012c0.776,0.858,1.567,1.707,2.392,2.533
				s1.675,1.617,2.533,2.392L151.652,150.268z M273.551,82.546l8.619,8.619l-8.619,8.619l-8.619-8.619L273.551,82.546z
				 M260.007,96.09l8.619,8.619l-8.619,8.619l-8.619-8.619L260.007,96.09z M246.463,109.634l8.619,8.619l-8.619,8.619l-8.619-8.619
				L246.463,109.634z M232.918,123.179l8.619,8.619l-8.619,8.619l-8.619-8.619L232.918,123.179z M219.374,136.723l8.619,8.619
				l-8.619,8.619l-8.619-8.619L219.374,136.723z M205.829,150.268l8.619,8.619l-8.619,8.619l-8.619-8.619L205.829,150.268z
				 M273.551,55.457l8.619,8.619l-8.619,8.619l-8.619-8.619L273.551,55.457z M260.007,69.001l8.619,8.619l-8.619,8.619l-8.619-8.619
				L260.007,69.001z M246.463,82.546l8.619,8.619l-8.619,8.619l-8.619-8.619L246.463,82.546z M232.918,96.09l8.619,8.619
				l-8.619,8.619l-8.619-8.619L232.918,96.09z M219.374,109.634l8.619,8.619l-8.619,8.619l-8.619-8.619L219.374,109.634z
				 M205.829,123.179l8.619,8.619l-8.619,8.619l-8.619-8.619L205.829,123.179z M192.285,136.723l8.619,8.619l-8.619,8.619
				l-8.619-8.619L192.285,136.723z M178.741,150.268l8.619,8.619l-8.619,8.619l-8.619-8.619L178.741,150.268z M260.007,41.912
				l8.619,8.619l-8.619,8.619l-8.619-8.619L260.007,41.912z M246.463,55.457l8.619,8.619l-8.619,8.619l-8.619-8.619L246.463,55.457z
				 M232.918,69.001l8.619,8.619l-8.619,8.619l-8.619-8.619L232.918,69.001z M219.374,82.546l8.619,8.619l-8.619,8.619l-8.619-8.619
				L219.374,82.546z M205.829,96.09l8.619,8.619l-8.619,8.619l-8.619-8.619L205.829,96.09z M192.285,109.634l8.619,8.619
				l-8.619,8.619l-8.619-8.619L192.285,109.634z M178.741,123.179l8.619,8.619l-8.619,8.619l-8.619-8.619L178.741,123.179z
				 M165.196,136.723l8.619,8.619l-8.619,8.619l-8.619-8.619L165.196,136.723z M138.107,99.784l-8.619-8.619l8.619-8.619
				l8.619,8.619L138.107,99.784z M151.652,86.24l-8.619-8.619l8.619-8.619l8.619,8.619L151.652,86.24z M165.196,72.695l-8.619-8.619
				l8.619-8.619l8.619,8.619L165.196,72.695z M178.741,59.151l-8.619-8.619l8.619-8.619l8.619,8.619L178.741,59.151z
				 M192.285,45.606l-8.619-8.619l8.619-8.619l8.619,8.619L192.285,45.606z M205.829,32.062l-8.619-8.619l8.619-8.619l8.619,8.619
				L205.829,32.062z M138.107,126.873l-8.619-8.619l8.619-8.619l8.619,8.619L138.107,126.873z M151.652,113.328l-8.619-8.619
				l8.619-8.619l8.619,8.619L151.652,113.328z M165.196,99.784l-8.619-8.619l8.619-8.619l8.619,8.619L165.196,99.784z
				 M178.741,86.24l-8.619-8.619l8.619-8.619l8.619,8.619L178.741,86.24z M192.285,72.695l-8.619-8.619l8.619-8.619l8.619,8.619
				L192.285,72.695z M205.829,59.151l-8.619-8.619l8.619-8.619l8.619,8.619L205.829,59.151z M219.374,45.606l-8.619-8.619
				l8.619-8.619l8.619,8.619L219.374,45.606z M232.918,32.062l-8.619-8.619l8.619-8.619l8.619,8.619L232.918,32.062z
				 M151.652,140.417l-8.619-8.619l8.619-8.619l8.619,8.619L151.652,140.417z M165.196,126.873l-8.619-8.619l8.619-8.619
				l8.619,8.619L165.196,126.873z M178.741,113.328l-8.619-8.619l8.619-8.619l8.619,8.619L178.741,113.328z M192.285,99.784
				l-8.619-8.619l8.619-8.619l8.619,8.619L192.285,99.784z M205.829,86.24l-8.619-8.619l8.619-8.619l8.619,8.619L205.829,86.24z
				 M219.374,72.695l-8.619-8.619l8.619-8.619l8.619,8.619L219.374,72.695z M232.918,59.151l-8.619-8.619l8.619-8.619l8.619,8.619
				L232.918,59.151z M246.463,45.606l-8.619-8.619l8.619-8.619l8.619,8.619L246.463,45.606z"/>
		</g>
	</g>
	<g>
		<path style="fill:#3C5768;" d="M91.044,233.039c3.551-3.551,3.551-9.309,0-12.861l-14.228-14.228
			c-3.551-3.551-9.309-3.551-12.861,0l-6.704,6.704l27.089,27.089L91.044,233.039z"/>
	</g>
	<g>
		<path style="fill:#32373B;" d="M57.251,212.654L2.663,267.242c-3.551,3.551-3.551,9.309,0,12.861l14.228,14.228
			c3.551,3.551,9.309,3.551,12.861,0l54.588-54.588L57.251,212.654z"/>
	</g>
	<g style="opacity:0.6;">
		<path style="fill:#32373B;" d="M91.044,220.179l-5.789-5.789c3.551,3.551,3.551,9.309,0,12.861l-6.704,6.704l5.789,5.789
			l6.704-6.704C94.595,229.488,94.595,223.73,91.044,220.179z"/>
	</g>
	<g style="opacity:0.6;">
		<path style="fill:#32373B;" d="M78.552,233.954l-54.588,54.588c-3.551,3.551-9.309,3.551-12.861,0l5.789,5.789
			c3.551,3.551,9.309,3.551,12.861,0l54.588-54.588"/>
	</g>
</g>
<g>
</g>
<g>
</g>
<g>
</g>
<g>
</g>
<g>
</g>
<g>
</g>
<g>
</g>
<g>
</g>
<g>
</g>
<g>
</g>
<g>
</g>
<g>
</g>
<g>
</g>
<g>
</g>
<g>
</g>
</svg>
